<?xml version="1.0" encoding="utf-8"?>
<!-- Generator: Adobe Illustrator 22.1.0, SVG Export Plug-In . SVG Version: 6.00 Build 0)  -->
<svg version="1.1" id="Ebene_1" xmlns="http://www.w3.org/2000/svg" xmlns:xlink="http://www.w3.org/1999/xlink" x="0px" y="0px"
	 width="427.019px" height="110px" viewBox="0 0 427.019 110" enable-background="new 0 0 427.019 110" xml:space="preserve">
<g>
	<path fill="#8EBAE5" d="M340.04,86.193h4.445V76.87h2.376c1.791,0,2.563,1.05,2.625,2.779l0.123,4.229
		c0.031,0.863,0.124,1.697,0.556,2.315h4.815v-0.185c-0.833-0.433-0.956-1.636-0.987-3.951c-0.062-4.662-0.525-6.329-3.55-6.73
		v-0.062c2.5-0.525,3.674-2.5,3.674-5.433c0-3.767-2.223-5.681-5.866-5.681h-8.211V86.193z M344.485,67.424h2.099
		c2.006,0,3.088,1.019,3.088,3.057c0,2.376-1.205,3.302-3.335,3.302h-1.852V67.424z"/>
	<path fill="#8EBAE5" d="M274.503,64.152v15.373c0,5.896,3.426,7.1,7.038,7.1c3.611,0,7.039-1.481,7.039-7.1V64.152h-4.445v15.373
		c0,2.192-0.525,3.828-2.594,3.828c-2.068,0-2.593-1.636-2.593-3.828V64.152H274.503z"/>
	<polygon fill="#8EBAE5" points="289.668,64.152 289.668,86.193 293.743,86.193 293.743,70.759 293.804,70.759 299.237,86.193 
		304.3,86.193 304.3,64.152 300.225,64.152 300.225,79.247 300.164,79.247 294.792,64.152 	"/>
	<rect x="305.443" y="64.152" fill="#8EBAE5" width="4.445" height="22.041"/>
	<polygon fill="#8EBAE5" points="310.193,64.152 315.254,86.193 320.965,86.193 326.027,64.152 321.428,64.152 318.156,80.452 
		318.064,80.452 314.947,64.152 	"/>
	<polygon fill="#8EBAE5" points="326.424,64.152 326.424,86.193 339.05,86.193 339.05,82.551 330.869,82.551 330.869,76.623 
		338.279,76.623 338.279,72.981 330.869,72.981 330.869,67.795 338.741,67.795 338.741,64.152 	"/>
	<path fill="#8EBAE5" d="M354.486,79.309v0.895c0,4.076,1.975,6.422,7.008,6.422c4.815,0,7.655-2.1,7.655-6.761
		c0-2.686-0.865-4.383-4.199-5.835l-3.426-1.481c-1.883-0.803-2.284-1.636-2.284-2.994c0-1.296,0.525-2.563,2.531-2.563
		c1.697,0,2.408,1.204,2.408,3.273h4.26v-0.618c0-4.229-2.872-5.927-6.823-5.927c-4.198,0-6.821,2.192-6.821,6.482
		c0,3.674,1.821,5.311,5.772,6.668c2.933,1.019,3.952,1.76,3.952,3.767c0,1.851-1.298,2.716-2.655,2.716
		c-2.347,0-2.933-1.327-2.933-3.395v-0.649H354.486z"/>
	<rect x="369.729" y="64.152" fill="#8EBAE5" width="4.445" height="22.041"/>
	<polygon fill="#8EBAE5" points="397.263,64.152 394.176,72.672 394.114,72.672 391.213,64.152 374.757,64.152 374.757,67.795 
		379.572,67.795 379.572,86.193 384.017,86.193 384.017,67.795 387.767,67.795 391.922,77.519 391.922,86.193 396.368,86.193 
		396.368,77.519 402.078,64.152 	"/>
	<path fill="#00549F" d="M235.454,62.147h-0.282h-7.084v-2.495V40.171v-0.163h7.069h0.015h4.995c3.276-0.001,6.1,2.12,7.022,4.931
		c0.853,2.605,0.124,5.434-1.802,7.449c0.256,0.693,0.506,1.236,0.743,1.859c0.535,1.233,1.024,2.466,1.559,3.683l1.753,4.217
		h-0.045h-7.424c0,0.004-0.06-0.178-0.119-0.253c-0.297-0.652-0.565-1.351-0.861-2.004l-1.797-4.262
		c-0.713-1.722-1.426-3.35-2.138-5.072c0.889-0.024,1.554,0.143,2.412-0.252c0.604-0.297,1.518-1.035,1.542-2.449
		c-0.024-0.701-0.218-1.232-0.681-1.784c-0.466-0.514-1.139-0.895-2.016-0.907c0,0-2.862-0.001-2.861,0V62.147z"/>
	<path fill="#00549F" d="M312.389,40.008v22.139h-5.751h-1.615V53.12h-0.687h-4.409h-0.061v9.027c-1.336,0-2.776-0.015-4.112,0
		h-3.253V45.131h-5.152v0.534v1.603v7.291v7.588h-0.059h-7.307V52.97v-0.356v-7.483h-5.196v8.033v8.983H267.2
		c-1.322-3.192-2.717-6.414-4.009-9.592c-0.149-0.668-0.297-1.337-0.49-1.99v11.582h-7.603c-1.507-3.504-2.955-6.938-4.457-10.494
		c-0.521-1.232-0.948-2.234-1.486-3.515l-0.074-0.168l-1.17-2.747l-1.676-3.923c-0.147-0.445-0.384-0.847-0.534-1.292h7.586
		c1.559,3.786,3.132,7.528,4.766,11.255l0.045,0.089c-0.059-0.431-0.194-0.98-0.268-1.395v-6.608c0.015-1.055,0-2.258,0-3.341h7.602
		c0.096,0.241,0.15,0.371,0.223,0.565c0.891,2.093,1.738,4.172,2.629,6.25l1.99,4.529c-0.045-0.476-0.149-0.935-0.209-1.395v-9.949
		h0.609h5.168h18.709h5.315v1.381v6.608h0.357h4.8v-7.989h3.842H312.389z"/>
	<path fill="#8EBAE5" d="M333.754,53.805l2.14-9.954h0.062l2.14,9.954H333.754z M318.995,53.805l2.139-9.954h0.062l2.14,9.954
		H318.995z M338.685,40.006h-5.52l-4.62,17.451l-4.62-17.451h-5.52l-5.861,22.141h4.652l1.023-4.682h5.893l1.022,4.682h6.822
		l1.023-4.682h5.892l1.023,4.682h4.652L338.685,40.006z"/>
	<path fill="#8EBAE5" d="M357.845,47.561c0-3.21-0.463-7.872-6.823-7.872c-6.667,0-7.502,4.754-7.502,11.452
		c0,6.699,0.835,11.453,7.502,11.453c5.834,0,7.007-4.105,7.007-8.859h-4.445c0,4.754-1.173,5.587-2.778,5.587
		c-1.914,0-2.84-1.204-2.84-7.872c0-6.235,0.525-8.488,2.778-8.488c2.006,0,2.655,1.389,2.655,4.599H357.845z"/>
	<polygon fill="#8EBAE5" points="358.908,62.147 363.372,62.147 363.372,52.318 368.582,52.318 368.582,62.147 373.047,62.147 
		373.047,40.008 368.582,40.008 368.582,48.474 363.372,48.474 363.372,40.008 358.908,40.008 	"/>
	<polygon fill="#8EBAE5" points="374.015,40.004 374.015,62.147 386.7,62.147 386.7,58.488 378.481,58.488 378.481,52.533 
		385.925,52.533 385.925,48.873 378.481,48.873 378.481,43.663 386.389,43.663 386.389,40.004 	"/>
	<polygon fill="#8EBAE5" points="387.363,40.008 387.363,62.147 391.456,62.147 391.456,46.643 391.517,46.643 396.975,62.147 
		402.061,62.147 402.061,40.008 397.967,40.008 397.967,55.17 397.905,55.17 392.51,40.008 	"/>
	<rect x="213.077" y="39.978" fill="#00549F" width="1.023" height="46.398"/>
	<path fill="#00549F" d="M52.424,60.823c-0.144-0.97-0.466-1.856-0.969-2.667c-0.505-0.806-1.134-1.517-1.888-2.127
		c-0.754-0.61-1.607-1.088-2.56-1.43c-0.952-0.342-1.95-0.512-2.991-0.512c-1.906,0-3.522,0.372-4.851,1.104
		c-1.329,0.737-2.408,1.729-3.233,2.965c-0.826,1.242-1.43,2.65-1.806,4.233c-0.378,1.58-0.566,3.215-0.566,4.903
		c0,1.619,0.188,3.189,0.566,4.716c0.376,1.53,0.98,2.904,1.806,4.123c0.825,1.224,1.904,2.203,3.233,2.939
		c1.329,0.737,2.945,1.105,4.851,1.105c2.587,0,4.608-0.799,6.063-2.4c1.455-1.596,2.345-3.671,2.667-6.224h8.193
		c-0.214,2.408-0.773,4.58-1.67,6.523c-0.899,1.939-2.083,3.592-3.558,4.956c-1.473,1.369-3.197,2.417-5.173,3.154
		c-1.976,0.737-4.152,1.106-6.522,1.106c-2.982,0-5.641-0.523-7.976-1.563c-2.336-1.042-4.312-2.459-5.931-4.258
		c-1.616-1.798-2.855-3.917-3.717-6.361c-0.864-2.442-1.293-5.048-1.293-7.816c0-2.837,0.429-5.495,1.293-7.978
		c0.862-2.478,2.101-4.632,3.717-6.465c1.619-1.834,3.595-3.268,5.931-4.311c2.335-1.045,4.994-1.566,7.976-1.566
		c2.121,0,4.123,0.306,6.009,0.916c1.886,0.614,3.574,1.505,5.066,2.671c1.492,1.166,2.724,2.615,3.693,4.339
		c0.97,1.723,1.582,3.702,1.831,5.925H52.424z"/>
	<path fill="#00549F" d="M134.693,67.723c0,2.123-0.27,3.917-0.807,5.39c-0.54,1.474-1.259,2.667-2.157,3.584
		c-0.898,0.917-1.922,1.574-3.072,1.969c-1.151,0.395-2.334,0.592-3.557,0.592h-7.546V55.003h6.037c2.084,0,3.833,0.298,5.255,0.89
		c1.419,0.592,2.56,1.448,3.421,2.562c0.864,1.114,1.484,2.452,1.86,4.013C134.504,64.034,134.693,65.785,134.693,67.723
		 M143.156,66.916c0-3.198-0.441-5.984-1.32-8.356c-0.882-2.368-2.104-4.347-3.667-5.926c-1.562-1.583-3.413-2.767-5.552-3.556
		c-2.137-0.791-4.444-1.19-6.925-1.19h-14.198h-2.402h-5.899l-6.304,26.518h-0.107l-6.577-26.518h-7.923l-6.684,26.195h-0.107
		l-6.09-26.195H60.94l10.186,38.485h8.568l6.416-26.195h0.107l6.523,26.195h8.406l7.946-29.554v29.554h16.6
		c2.946,0,5.507-0.497,7.681-1.483c2.173-0.987,3.989-2.342,5.443-4.07c1.455-1.724,2.542-3.772,3.261-6.14
		C142.796,72.307,143.156,69.718,143.156,66.916"/>
	<path fill="#00549F" d="M171.842,84.576v0.195c0,0.266,0.03,0.506,0.092,0.721c0.061,0.215,0.168,0.399,0.322,0.552
		c0.153,0.154,0.359,0.271,0.619,0.353c0.259,0.082,0.589,0.123,0.992,0.123c0.293,0,0.566-0.036,0.819-0.107
		c0.251-0.072,0.468-0.179,0.649-0.323c0.18-0.143,0.322-0.324,0.425-0.542c0.102-0.218,0.153-0.47,0.153-0.757
		c0-0.416-0.092-0.745-0.276-0.987c-0.184-0.242-0.498-0.438-0.941-0.588l-0.849-0.287c-0.24-0.074-0.401-0.166-0.486-0.276
		c-0.086-0.109-0.128-0.232-0.128-0.368c0-0.198,0.066-0.346,0.199-0.445s0.288-0.148,0.466-0.148c0.231,0,0.394,0.066,0.486,0.199
		c0.092,0.133,0.138,0.343,0.138,0.629h1.268v-0.225c0-0.498-0.153-0.883-0.46-1.156c-0.307-0.273-0.782-0.409-1.422-0.409
		c-0.362,0-0.67,0.044-0.926,0.133c-0.256,0.089-0.465,0.207-0.629,0.358c-0.164,0.15-0.283,0.325-0.358,0.527
		c-0.076,0.201-0.112,0.414-0.112,0.639c0,0.389,0.098,0.708,0.296,0.957c0.198,0.248,0.491,0.442,0.88,0.578l0.992,0.358
		c0.136,0.054,0.256,0.128,0.358,0.22c0.103,0.092,0.154,0.227,0.154,0.404c0,0.218-0.066,0.381-0.195,0.491
		c-0.13,0.109-0.303,0.163-0.521,0.163c-0.24,0-0.422-0.073-0.548-0.22c-0.126-0.146-0.189-0.339-0.189-0.578v-0.184H171.842z
		 M168.46,83.001v-0.215c0-0.13,0.011-0.259,0.035-0.389c0.024-0.13,0.063-0.247,0.118-0.353c0.054-0.105,0.128-0.191,0.22-0.255
		c0.092-0.065,0.21-0.097,0.353-0.097s0.261,0.028,0.353,0.086c0.092,0.059,0.163,0.144,0.215,0.256
		c0.051,0.113,0.087,0.249,0.107,0.409c0.021,0.161,0.034,0.346,0.041,0.558H168.46z M171.252,83.84v-0.317
		c0-0.423-0.027-0.806-0.082-1.151c-0.055-0.345-0.157-0.638-0.306-0.88c-0.151-0.242-0.357-0.43-0.619-0.563
		c-0.263-0.133-0.599-0.199-1.008-0.199c-0.478,0-0.859,0.079-1.146,0.235c-0.286,0.157-0.506,0.368-0.66,0.634
		c-0.153,0.266-0.255,0.57-0.306,0.911c-0.052,0.341-0.077,0.696-0.077,1.064c0,0.34,0.015,0.687,0.046,1.038
		c0.031,0.351,0.113,0.668,0.25,0.952c0.137,0.283,0.348,0.513,0.635,0.69c0.286,0.177,0.685,0.266,1.197,0.266
		c0.675,0,1.169-0.172,1.483-0.517c0.313-0.344,0.484-0.836,0.511-1.478h-1.268c-0.041,0.348-0.117,0.607-0.225,0.778
		c-0.11,0.171-0.283,0.255-0.522,0.255c-0.13,0-0.239-0.035-0.327-0.107c-0.089-0.072-0.161-0.167-0.215-0.286
		c-0.055-0.12-0.094-0.256-0.118-0.41c-0.024-0.153-0.035-0.312-0.035-0.475v-0.44H171.252z M164.574,84.812h-0.02l-0.788-3.939
		h-1.473l1.422,5.504h1.637l1.381-5.504h-1.412L164.574,84.812z M160.23,86.377h1.412v-5.504h-1.412V86.377z M160.23,80.198h1.412
		v-1.207h-1.412V80.198z M156.691,86.377h1.412v-3.304c0-0.185,0.03-0.34,0.092-0.466c0.061-0.126,0.143-0.228,0.245-0.307
		c0.103-0.079,0.215-0.135,0.338-0.169c0.123-0.033,0.245-0.051,0.368-0.051c0.075,0,0.148,0.002,0.22,0.005
		c0.072,0.003,0.144,0.009,0.22,0.016v-1.351c-0.041-0.007-0.084-0.012-0.128-0.015c-0.045-0.003-0.087-0.005-0.128-0.005
		c-0.293,0-0.542,0.08-0.747,0.24c-0.204,0.161-0.378,0.374-0.521,0.64h-0.021v-0.737h-1.35V86.377z M150.908,86.377h2.322
		c0.491,0,0.897-0.075,1.217-0.225c0.321-0.151,0.576-0.379,0.768-0.686c0.191-0.307,0.325-0.695,0.404-1.166
		c0.079-0.47,0.117-1.03,0.117-1.678c0-0.539-0.03-1.026-0.092-1.462c-0.061-0.437-0.179-0.811-0.353-1.121
		c-0.173-0.31-0.417-0.549-0.731-0.716c-0.314-0.167-0.726-0.25-1.238-0.25h-2.414V86.377z M152.381,80.157h0.624
		c0.279,0,0.503,0.053,0.67,0.159c0.167,0.105,0.294,0.263,0.379,0.475c0.085,0.212,0.141,0.473,0.168,0.783
		c0.028,0.31,0.041,0.673,0.041,1.089c0,0.499-0.015,0.914-0.046,1.248c-0.03,0.335-0.092,0.604-0.184,0.809
		c-0.092,0.204-0.218,0.35-0.378,0.439c-0.161,0.089-0.367,0.133-0.619,0.133h-0.655V80.157z"/>
	<path fill="#00549F" d="M196.194,74.777h1.411v-3.304c0-0.184,0.031-0.34,0.093-0.466c0.061-0.126,0.143-0.228,0.245-0.307
		c0.102-0.078,0.215-0.135,0.338-0.168c0.122-0.034,0.245-0.052,0.368-0.052c0.075,0,0.148,0.002,0.22,0.006
		c0.071,0.003,0.144,0.008,0.22,0.015v-1.35c-0.041-0.008-0.084-0.013-0.128-0.016c-0.045-0.003-0.087-0.005-0.128-0.005
		c-0.294,0-0.542,0.08-0.747,0.24c-0.204,0.161-0.378,0.374-0.521,0.64h-0.021v-0.737h-1.35V74.777z M192.582,71.401v-0.215
		c0-0.13,0.012-0.259,0.036-0.388c0.024-0.13,0.063-0.248,0.118-0.353c0.054-0.106,0.128-0.192,0.22-0.256
		c0.092-0.065,0.21-0.097,0.353-0.097c0.143,0,0.261,0.028,0.353,0.087c0.092,0.058,0.163,0.143,0.215,0.255
		c0.051,0.113,0.087,0.249,0.107,0.41c0.02,0.16,0.034,0.345,0.041,0.557H192.582z M195.375,72.24v-0.317
		c0-0.423-0.027-0.806-0.082-1.151c-0.055-0.345-0.157-0.637-0.306-0.88c-0.151-0.242-0.357-0.429-0.619-0.562
		c-0.263-0.133-0.599-0.2-1.008-0.2c-0.478,0-0.859,0.079-1.146,0.235c-0.286,0.157-0.506,0.369-0.66,0.635
		c-0.153,0.266-0.255,0.569-0.307,0.91c-0.051,0.341-0.076,0.696-0.076,1.064c0,0.341,0.015,0.687,0.046,1.038
		c0.03,0.351,0.113,0.668,0.25,0.952c0.136,0.283,0.348,0.513,0.635,0.69c0.286,0.177,0.685,0.266,1.197,0.266
		c0.675,0,1.169-0.172,1.483-0.516c0.313-0.345,0.484-0.837,0.511-1.479h-1.268c-0.041,0.348-0.117,0.607-0.225,0.778
		c-0.11,0.171-0.284,0.256-0.522,0.256c-0.13,0-0.239-0.036-0.327-0.108c-0.089-0.071-0.161-0.167-0.215-0.286
		c-0.055-0.12-0.094-0.256-0.118-0.409c-0.024-0.154-0.036-0.312-0.036-0.476v-0.44H195.375z M184.963,74.777h1.637l0.685-3.908
		h0.021l0.726,3.908h1.606l1.187-5.504h-1.35l-0.665,3.908h-0.021l-0.726-3.908h-1.535l-0.685,3.908h-0.021l-0.644-3.908h-1.412
		L184.963,74.777z M180.505,71.248c0.013-0.239,0.046-0.443,0.097-0.614c0.051-0.171,0.126-0.304,0.225-0.399
		c0.098-0.095,0.236-0.143,0.414-0.143c0.287,0,0.484,0.15,0.594,0.45c0.108,0.3,0.163,0.795,0.163,1.483
		c0,0.689-0.055,1.184-0.163,1.483c-0.11,0.3-0.307,0.451-0.594,0.451c-0.178,0-0.316-0.048-0.414-0.144
		c-0.099-0.095-0.174-0.228-0.225-0.399c-0.051-0.17-0.084-0.375-0.097-0.613c-0.014-0.239-0.021-0.499-0.021-0.778
		S180.491,71.486,180.505,71.248 M179.175,73.294c0.068,0.361,0.184,0.665,0.348,0.91c0.164,0.246,0.384,0.428,0.665,0.547
		c0.279,0.12,0.63,0.176,1.053,0.169c0.403,0,0.742-0.063,1.018-0.189c0.277-0.126,0.5-0.31,0.67-0.552
		c0.17-0.243,0.293-0.545,0.369-0.906c0.074-0.361,0.112-0.777,0.112-1.248c0-0.478-0.035-0.898-0.102-1.263
		c-0.069-0.365-0.184-0.67-0.348-0.916c-0.164-0.245-0.386-0.427-0.665-0.547c-0.28-0.12-0.631-0.176-1.054-0.169
		c-0.403,0-0.741,0.063-1.017,0.189c-0.277,0.126-0.501,0.31-0.67,0.553c-0.171,0.242-0.294,0.544-0.369,0.905
		s-0.112,0.778-0.112,1.248C179.073,72.509,179.106,72.933,179.175,73.294 M173.951,74.777h1.473v-2.916h0.787
		c0.348,0,0.665-0.044,0.952-0.133c0.286-0.089,0.53-0.222,0.731-0.399c0.201-0.176,0.358-0.404,0.471-0.68
		c0.112-0.276,0.169-0.605,0.169-0.987c0-0.273-0.035-0.54-0.103-0.803c-0.068-0.263-0.181-0.496-0.337-0.701
		c-0.158-0.204-0.363-0.37-0.619-0.496c-0.256-0.126-0.572-0.189-0.947-0.189h-2.577V74.777z M175.424,68.557h0.613
		c0.369,0,0.631,0.095,0.788,0.287c0.157,0.191,0.235,0.47,0.235,0.838c0,0.376-0.091,0.652-0.271,0.829
		c-0.181,0.177-0.418,0.266-0.711,0.266h-0.654V68.557z M167.756,70.67c0.092-0.304,0.292-0.456,0.599-0.456
		c0.313,0,0.516,0.152,0.608,0.456c0.092,0.304,0.138,0.755,0.138,1.355c0,0.601-0.046,1.052-0.138,1.356
		c-0.092,0.303-0.295,0.455-0.608,0.455c-0.307,0-0.507-0.152-0.599-0.455c-0.092-0.304-0.138-0.755-0.138-1.356
		C167.618,71.425,167.664,70.974,167.756,70.67 M169.163,74.777h1.35v-7.304h-1.412v2.312h-0.02
		c-0.15-0.218-0.319-0.382-0.506-0.491c-0.189-0.11-0.415-0.164-0.681-0.164c-0.58,0-1.006,0.227-1.278,0.68
		c-0.274,0.454-0.41,1.192-0.41,2.215c0,1.023,0.136,1.762,0.41,2.215c0.272,0.453,0.698,0.68,1.278,0.68
		c0.287,0,0.527-0.056,0.722-0.169c0.194-0.112,0.369-0.298,0.526-0.557h0.021V74.777z M161.161,74.777h1.412v-3.652
		c0-0.607,0.248-0.911,0.746-0.911c0.211,0,0.365,0.057,0.461,0.169c0.095,0.113,0.143,0.312,0.143,0.599v3.795h1.412v-4.082
		c0-0.552-0.122-0.951-0.363-1.197c-0.243-0.245-0.589-0.368-1.039-0.368c-0.307,0-0.58,0.063-0.818,0.189
		c-0.24,0.126-0.434,0.326-0.583,0.599h-0.021v-0.645h-1.35V74.777z M158.723,74.777h1.412v-5.504h-1.412V74.777z M158.723,68.598
		h1.412v-1.207h-1.412V68.598z M151.736,74.777h1.647l0.818-5.299h0.021l0.818,5.299h1.647l1.33-7.304h-1.412l-0.808,5.401h-0.02
		l-0.859-5.401h-1.412l-0.86,5.401h-0.02l-0.808-5.401h-1.412L151.736,74.777z"/>
	<path fill="#00549F" d="M188.348,63.178h1.412v-3.304c0-0.185,0.031-0.34,0.092-0.466c0.061-0.126,0.143-0.228,0.246-0.307
		c0.102-0.079,0.214-0.135,0.337-0.169c0.123-0.033,0.246-0.051,0.368-0.051c0.076,0,0.149,0.002,0.22,0.005
		c0.072,0.003,0.146,0.009,0.22,0.016v-1.351c-0.041-0.007-0.083-0.012-0.128-0.015c-0.044-0.003-0.087-0.005-0.127-0.005
		c-0.293,0-0.543,0.08-0.747,0.24c-0.205,0.161-0.379,0.374-0.522,0.64h-0.02v-0.737h-1.351V63.178z M184.621,59.648
		c0.015-0.238,0.046-0.442,0.098-0.613c0.051-0.171,0.126-0.304,0.225-0.399c0.099-0.095,0.237-0.144,0.414-0.144
		c0.286,0,0.485,0.151,0.593,0.451c0.11,0.299,0.164,0.794,0.164,1.483c0,0.688-0.054,1.184-0.164,1.483
		c-0.108,0.3-0.307,0.45-0.593,0.45c-0.177,0-0.315-0.048-0.414-0.143c-0.099-0.095-0.174-0.228-0.225-0.399
		c-0.052-0.171-0.083-0.375-0.098-0.614c-0.013-0.238-0.02-0.498-0.02-0.777S184.609,59.887,184.621,59.648 M183.292,61.694
		c0.068,0.362,0.184,0.665,0.347,0.911c0.164,0.245,0.386,0.428,0.665,0.547c0.281,0.12,0.632,0.176,1.054,0.169
		c0.403,0,0.742-0.063,1.018-0.189c0.276-0.126,0.5-0.31,0.67-0.553c0.171-0.242,0.294-0.544,0.368-0.905
		c0.076-0.361,0.113-0.777,0.113-1.248c0-0.478-0.034-0.898-0.103-1.263c-0.067-0.366-0.184-0.671-0.347-0.916
		c-0.164-0.246-0.385-0.428-0.665-0.547c-0.28-0.12-0.63-0.176-1.054-0.169c-0.402,0-0.742,0.063-1.018,0.189
		c-0.276,0.126-0.499,0.31-0.67,0.553c-0.17,0.242-0.293,0.544-0.368,0.905c-0.075,0.361-0.113,0.777-0.113,1.248
		C183.189,60.91,183.225,61.333,183.292,61.694 M180.557,63.178h1.412v-4.542h0.818v-0.962h-0.818v-0.481
		c0-0.156,0.041-0.269,0.123-0.337c0.081-0.069,0.22-0.103,0.419-0.103h0.133c0.061,0,0.108,0.003,0.143,0.011v-1.003
		c-0.26-0.02-0.511-0.031-0.757-0.031c-0.225,0-0.43,0.023-0.614,0.067c-0.184,0.044-0.339,0.117-0.465,0.22
		c-0.127,0.102-0.224,0.238-0.292,0.409c-0.068,0.171-0.102,0.378-0.102,0.624v0.624h-0.716v0.962h0.716V63.178z M174.389,63.178
		h1.412v-3.304c0-0.185,0.031-0.34,0.092-0.466c0.062-0.126,0.143-0.228,0.246-0.307c0.102-0.079,0.214-0.135,0.337-0.169
		c0.123-0.033,0.246-0.051,0.369-0.051c0.074,0,0.148,0.002,0.219,0.005c0.072,0.003,0.145,0.009,0.22,0.016v-1.351
		c-0.041-0.007-0.083-0.012-0.127-0.015c-0.045-0.003-0.087-0.005-0.128-0.005c-0.294,0-0.543,0.08-0.747,0.24
		c-0.205,0.161-0.379,0.374-0.522,0.64h-0.02v-0.737h-1.351V63.178z M170.777,59.802v-0.215c0-0.13,0.011-0.259,0.036-0.389
		c0.023-0.13,0.062-0.247,0.118-0.353c0.054-0.105,0.127-0.191,0.22-0.255c0.092-0.065,0.209-0.098,0.352-0.098
		c0.144,0,0.261,0.029,0.353,0.087c0.092,0.059,0.164,0.144,0.215,0.256c0.051,0.113,0.087,0.249,0.108,0.409
		c0.02,0.161,0.033,0.346,0.041,0.558H170.777z M173.57,60.641v-0.317c0-0.423-0.028-0.806-0.082-1.151
		c-0.055-0.345-0.157-0.638-0.307-0.88c-0.15-0.242-0.357-0.43-0.619-0.563c-0.263-0.133-0.598-0.199-1.007-0.199
		c-0.478,0-0.86,0.079-1.146,0.235c-0.287,0.157-0.507,0.368-0.66,0.634c-0.153,0.266-0.256,0.57-0.307,0.911
		c-0.051,0.34-0.077,0.696-0.077,1.064c0,0.34,0.016,0.687,0.046,1.038c0.031,0.351,0.114,0.668,0.251,0.952
		c0.136,0.283,0.348,0.513,0.634,0.69c0.287,0.177,0.686,0.266,1.197,0.266c0.675,0,1.17-0.172,1.484-0.517
		c0.313-0.344,0.483-0.836,0.511-1.478h-1.268c-0.041,0.348-0.117,0.607-0.226,0.778c-0.109,0.171-0.283,0.255-0.521,0.255
		c-0.13,0-0.24-0.035-0.328-0.107c-0.089-0.072-0.16-0.167-0.214-0.286c-0.056-0.12-0.095-0.256-0.118-0.41
		c-0.025-0.153-0.036-0.312-0.036-0.475v-0.44H173.57z M166.717,57.674h-0.716v0.962h0.716v3.151c0,0.279,0.016,0.511,0.051,0.695
		c0.034,0.184,0.097,0.333,0.189,0.445c0.092,0.113,0.223,0.193,0.394,0.241c0.17,0.048,0.395,0.071,0.675,0.071
		c0.164,0,0.318-0.007,0.466-0.02c0.146-0.014,0.297-0.028,0.455-0.041v-0.982c-0.048,0.007-0.099,0.012-0.153,0.015
		c-0.056,0.003-0.11,0.005-0.164,0.005c-0.205,0-0.34-0.046-0.404-0.138c-0.066-0.092-0.097-0.247-0.097-0.465v-2.977h0.818v-0.962
		h-0.818v-1.575h-1.412V57.674z M161.21,63.178h1.412v-3.652c0-0.607,0.248-0.911,0.746-0.911c0.211,0,0.365,0.056,0.461,0.169
		c0.095,0.113,0.143,0.312,0.143,0.598v3.796h1.412v-4.082c0-0.552-0.122-0.951-0.363-1.197c-0.243-0.245-0.589-0.368-1.039-0.368
		c-0.307,0-0.58,0.063-0.818,0.189c-0.239,0.126-0.434,0.325-0.583,0.599h-0.021v-0.645h-1.35V63.178z M157.598,59.802v-0.215
		c0-0.13,0.011-0.259,0.036-0.389c0.023-0.13,0.062-0.247,0.117-0.353c0.054-0.105,0.128-0.191,0.22-0.255
		c0.092-0.065,0.21-0.098,0.353-0.098c0.143,0,0.261,0.029,0.353,0.087c0.092,0.059,0.164,0.144,0.215,0.256
		c0.051,0.113,0.087,0.249,0.107,0.409c0.021,0.161,0.034,0.346,0.041,0.558H157.598z M160.391,60.641v-0.317
		c0-0.423-0.028-0.806-0.082-1.151c-0.056-0.345-0.158-0.638-0.307-0.88c-0.151-0.242-0.357-0.43-0.619-0.563
		c-0.263-0.133-0.599-0.199-1.008-0.199c-0.478,0-0.859,0.079-1.146,0.235c-0.286,0.157-0.506,0.368-0.659,0.634
		c-0.154,0.266-0.256,0.57-0.307,0.911c-0.051,0.34-0.077,0.696-0.077,1.064c0,0.34,0.015,0.687,0.046,1.038
		c0.031,0.351,0.114,0.668,0.251,0.952c0.136,0.283,0.348,0.513,0.634,0.69c0.286,0.177,0.685,0.266,1.197,0.266
		c0.675,0,1.169-0.172,1.483-0.517c0.313-0.344,0.484-0.836,0.512-1.478h-1.269c-0.041,0.348-0.116,0.607-0.225,0.778
		c-0.109,0.171-0.283,0.255-0.522,0.255c-0.13,0-0.239-0.035-0.327-0.107c-0.089-0.072-0.161-0.167-0.215-0.286
		c-0.055-0.12-0.094-0.256-0.117-0.41c-0.025-0.153-0.036-0.312-0.036-0.475v-0.44H160.391z M155.43,58.339
		c0-0.266-0.018-0.55-0.056-0.854c-0.038-0.304-0.131-0.586-0.282-0.849c-0.15-0.263-0.376-0.479-0.68-0.65
		c-0.304-0.171-0.718-0.256-1.243-0.256c-0.552,0-0.992,0.094-1.32,0.282c-0.327,0.187-0.578,0.448-0.751,0.782
		c-0.174,0.335-0.287,0.735-0.338,1.202c-0.051,0.468-0.077,0.977-0.077,1.53c0,0.552,0.026,1.062,0.077,1.529
		c0.051,0.468,0.164,0.868,0.338,1.202c0.173,0.335,0.424,0.596,0.751,0.783c0.328,0.187,0.768,0.281,1.32,0.281
		c0.484,0,0.878-0.079,1.182-0.235c0.304-0.157,0.539-0.371,0.706-0.64c0.166-0.269,0.281-0.581,0.342-0.936
		c0.062-0.355,0.092-0.729,0.092-1.125h-1.473c0,0.396-0.023,0.714-0.071,0.957c-0.048,0.242-0.113,0.429-0.195,0.562
		s-0.179,0.222-0.291,0.266c-0.113,0.044-0.234,0.067-0.363,0.067c-0.157,0-0.295-0.033-0.415-0.098
		c-0.119-0.064-0.218-0.191-0.296-0.378c-0.079-0.187-0.137-0.452-0.174-0.793c-0.038-0.341-0.057-0.788-0.057-1.34
		c0-0.519,0.014-0.957,0.041-1.315c0.028-0.358,0.075-0.647,0.144-0.869c0.068-0.222,0.161-0.382,0.281-0.481
		c0.12-0.099,0.271-0.148,0.455-0.148c0.335,0,0.565,0.12,0.691,0.363c0.125,0.242,0.189,0.629,0.189,1.161H155.43z"/>
</g>
</svg>
